<svg width="75" height="75" viewBox="0 0 75 75" fill="none" xmlns="http://www.w3.org/2000/svg">
<g filter="url(#filter0_d_180996_10385)">
<circle cx="37.5" cy="37.5" r="27.5" fill="#FE7743"/>
</g>
<path fill-rule="evenodd" clip-rule="evenodd" d="M37.1165 33.366C37.3509 33.1316 37.6688 33 38.0002 33C38.3317 33 38.6496 33.1316 38.884 33.366L45.9552 40.4372C46.1829 40.673 46.3089 40.9887 46.3061 41.3165C46.3032 41.6442 46.1718 41.9577 45.94 42.1895C45.7082 42.4213 45.3947 42.5527 45.067 42.5556C44.7392 42.5584 44.4235 42.4324 44.1877 42.2047L38.0002 36.0172L31.8127 42.2047C31.577 42.4324 31.2612 42.5584 30.9335 42.5556C30.6057 42.5527 30.2922 42.4213 30.0605 42.1895C29.8287 41.9577 29.6972 41.6442 29.6944 41.3165C29.6915 40.9887 29.8175 40.673 30.0452 40.4372L37.1165 33.366Z" fill="white"/>
<defs>
<filter id="filter0_d_180996_10385" x="0" y="0" width="75" height="75" filterUnits="userSpaceOnUse" color-interpolation-filters="sRGB">
<feFlood flood-opacity="0" result="BackgroundImageFix"/>
<feColorMatrix in="SourceAlpha" type="matrix" values="0 0 0 0 0 0 0 0 0 0 0 0 0 0 0 0 0 0 127 0" result="hardAlpha"/>
<feOffset/>
<feGaussianBlur stdDeviation="5"/>
<feComposite in2="hardAlpha" operator="out"/>
<feColorMatrix type="matrix" values="0 0 0 0 0 0 0 0 0 0 0 0 0 0 0 0 0 0 0.2 0"/>
<feBlend mode="normal" in2="BackgroundImageFix" result="effect1_dropShadow_180996_10385"/>
<feBlend mode="normal" in="SourceGraphic" in2="effect1_dropShadow_180996_10385" result="shape"/>
</filter>
</defs>
</svg>
