<svg width="28" height="28" viewBox="0 0 28 28" fill="none" xmlns="http://www.w3.org/2000/svg">
<path fill-rule="evenodd" clip-rule="evenodd" d="M9.67557 14.8248C9.45685 14.606 9.33398 14.3093 9.33398 14C9.33398 13.6906 9.45685 13.3939 9.67557 13.1751L16.2754 6.57529C16.383 6.46386 16.5118 6.37498 16.6541 6.31383C16.7964 6.25269 16.9495 6.22051 17.1044 6.21916C17.2593 6.21781 17.413 6.24733 17.5563 6.30599C17.6997 6.36466 17.83 6.45128 17.9395 6.56083C18.0491 6.67037 18.1357 6.80063 18.1944 6.94401C18.253 7.08739 18.2825 7.24101 18.2812 7.39592C18.2798 7.55083 18.2477 7.70392 18.1865 7.84626C18.1254 7.9886 18.0365 8.11733 17.9251 8.22495L12.1501 14L17.9251 19.775C18.1376 19.995 18.2552 20.2897 18.2525 20.5956C18.2499 20.9015 18.1272 21.1941 17.9109 21.4104C17.6945 21.6267 17.4019 21.7494 17.096 21.7521C16.7901 21.7547 16.4954 21.6371 16.2754 21.4246L9.67557 14.8248Z" fill="#B2B2B2"/>
</svg>
